<svg width="52" height="46" viewBox="0 0 52 46" fill="none" xmlns="http://www.w3.org/2000/svg">
<path d="M45.89 6.37249C44.7408 5.22275 43.3763 4.31069 41.8745 3.68843C40.3728 3.06616 38.7631 2.74588 37.1375 2.74588C35.5119 2.74588 33.9022 3.06616 32.4004 3.68843C30.8987 4.31069 29.5342 5.22275 28.385 6.37249L26 8.75749L23.615 6.37249C21.2937 4.05118 18.1453 2.74708 14.8625 2.74708C11.5797 2.74708 8.4313 4.05118 6.10999 6.37249C3.78869 8.69379 2.48459 11.8422 2.48459 15.125C2.48459 18.4078 3.78869 21.5562 6.10999 23.8775L26 43.7675L45.89 23.8775C47.0397 22.7283 47.9518 21.3638 48.5741 19.862C49.1963 18.3603 49.5166 16.7506 49.5166 15.125C49.5166 13.4994 49.1963 11.8897 48.5741 10.3879C47.9518 8.88616 47.0397 7.52169 45.89 6.37249Z" fill="white" stroke="white" stroke-width="4" stroke-linecap="round" stroke-linejoin="round"/>
</svg>
